<?xml version="1.0" encoding="utf-8"?>
<!-- Generator: Adobe Illustrator 27.0.0, SVG Export Plug-In . SVG Version: 6.00 Build 0)  -->
<svg version="1.1" id="Layer_1" xmlns="http://www.w3.org/2000/svg" xmlns:xlink="http://www.w3.org/1999/xlink" x="0px" y="0px"
	 viewBox="0 0 21 21" style="enable-background:new 0 0 21 21;" xml:space="preserve">
<style type="text/css">
	.st0{fill:#FFFFFF;}
	.st1{fill:none;stroke:#FFFFFF;stroke-width:2;}
	.st2{fill:#04795B;}
</style>
<g id="Group_10120" transform="translate(2.407 2.384)">
	<g id="Ellipse_666" transform="translate(-0.407 -0.384)">
		<circle class="st0" cx="8.5" cy="8.5" r="8.5"/>
		<circle class="st1" cx="8.5" cy="8.5" r="9.5"/>
	</g>
</g>
<g>
	<path class="st2" d="M7,11.7c0.5,0,1-0.2,1.4-0.5L5.2,8.1C5,8.5,4.8,9,4.8,9.5C4.8,10.7,5.8,11.7,7,11.7L7,11.7z"/>
	<path class="st2" d="M16.2,9.5c0-0.5-0.2-1-0.5-1.4l-3.1,3.1c0.4,0.3,0.8,0.5,1.4,0.5C15.2,11.7,16.2,10.7,16.2,9.5z"/>
	<path class="st2" d="M17.8,6.1l-1.4,1.4c0.5,0.5,0.7,1.2,0.7,2c0,1.7-1.4,3.1-3.1,3.1c-0.8,0-1.5-0.3-2-0.7l-1.5,1.5L9,11.9
		c-0.5,0.5-1.2,0.7-2,0.7c-1.7,0-3.1-1.4-3.1-3.1c0-0.8,0.3-1.5,0.7-2L3.9,6.8L3.2,6.1C2.4,7.4,2,8.9,2,10.5c0,4.7,3.8,8.5,8.5,8.5
		c4.7,0,8.5-3.8,8.5-8.5C19,8.9,18.6,7.4,17.8,6.1z"/>
	<path class="st2" d="M16.7,4.6C15.1,3,12.9,2,10.5,2C8.1,2,5.9,3,4.3,4.6C4.1,4.8,3.9,5.1,3.7,5.3l6.8,6.8l6.8-6.8
		C17.1,5.1,16.9,4.8,16.7,4.6z M10.5,3.1c2,0,3.8,0.8,5.2,2.2l-5.2,5.2L5.3,5.3C6.7,3.9,8.5,3.1,10.5,3.1z"/>
</g>
</svg>
