<svg xmlns="http://www.w3.org/2000/svg" width="21" height="21" viewBox="0 0 21 21">
  <g id="Group_10120" data-name="Group 10120" transform="translate(2.407 2.384)">
    <g id="Ellipse_666" data-name="Ellipse 666" transform="translate(-0.407 -0.384)" fill="#8247e5" stroke="#fff" stroke-width="2">
      <circle cx="8.5" cy="8.5" r="8.5" stroke="none"/>
      <circle cx="8.5" cy="8.5" r="9.5" fill="none"/>
    </g>
    <g id="polygon-matic-logo" transform="translate(3.463 3.905)">
      <path id="Path_8533" data-name="Path 8533" d="M7.163,2.444a.629.629,0,0,0-.593,0l-1.383.815-.939.519L2.89,4.593a.629.629,0,0,1-.593,0L1.235,3.951a.6.6,0,0,1-.3-.519V2.2a.609.609,0,0,1,.3-.519L2.3,1.061a.629.629,0,0,1,.593,0L3.952,1.7a.6.6,0,0,1,.3.519v.815l.939-.543v-.84a.609.609,0,0,0-.3-.519L2.914-.026a.629.629,0,0,0-.593,0L.3,1.16a.543.543,0,0,0-.3.494V3.975a.609.609,0,0,0,.3.519l2,1.161a.629.629,0,0,0,.593,0l1.358-.79.939-.543,1.358-.79a.629.629,0,0,1,.593,0L8.2,4.148a.6.6,0,0,1,.3.519V5.9a.609.609,0,0,1-.3.519l-1.037.617a.629.629,0,0,1-.593,0L5.508,6.42a.6.6,0,0,1-.3-.519v-.79l-.939.543V6.47a.609.609,0,0,0,.3.519l2,1.161a.629.629,0,0,0,.593,0l2-1.161a.6.6,0,0,0,.3-.519V4.123a.609.609,0,0,0-.3-.519Z" transform="translate(0 0.1)" fill="#fff"/>
    </g>
  </g>
</svg>
